<?xml version="1.0" encoding="utf-8"?>
<!-- Generator: Adobe Illustrator 27.5.0, SVG Export Plug-In . SVG Version: 6.00 Build 0)  -->
<svg version="1.1" xmlns="http://www.w3.org/2000/svg" xmlns:xlink="http://www.w3.org/1999/xlink" x="0px" y="0px"
	 viewBox="0 0 500 500" style="enable-background:new 0 0 500 500;" xml:space="preserve">
<g id="BACKGROUND">
	<rect style="fill:#CAE8FF;" width="500" height="500"/>
</g>
<g id="OBJECTS">
	<g>
		<g>
			
				<ellipse transform="matrix(0.7071 -0.7071 0.7071 0.7071 -96.695 247.1592)" style="fill:#E84F4F;" cx="250" cy="240.301" rx="177.977" ry="177.978"/>
			<g>
				<path style="fill:#FFFFFF;" d="M369.456,370.185c0,0,10.254-4.189,11.751-16.483c0.641-5.266-1.021-9.881-4.291-13.814
					c-4.963,1.53-7.46,6.224-7.46,6.224s-2.496-4.693-7.459-6.224c-3.272,3.933-4.933,8.548-4.291,13.814
					C359.203,365.996,369.456,370.185,369.456,370.185z"/>
				<path style="fill:#FFFFFF;" d="M367.582,371.548c0,0-0.817-11.046-12.048-16.268c-4.811-2.241-9.712-2.085-14.466-0.19
					c-0.075,5.191,3.616,9.017,3.616,9.017s-5.233,0.927-8.225,5.174c2.733,4.324,6.605,7.332,11.811,8.349
					C360.427,380.007,367.582,371.548,367.582,371.548z"/>
				<path style="fill:#FFFFFF;" d="M368.296,373.75c0,0-10.758-2.634-19.192,6.431c-3.618,3.881-4.984,8.595-4.651,13.701
					c4.915,1.677,9.695-0.652,9.695-0.652s-0.742,5.263,2.374,9.42c4.96-1.261,9.015-4.017,11.592-8.654
					C374.13,383.169,368.296,373.75,368.296,373.75z"/>
				<path style="fill:#FFFFFF;" d="M370.613,373.753c0,0-5.829,9.416,0.183,20.241c2.577,4.639,6.635,7.395,11.595,8.658
					c3.113-4.156,2.375-9.423,2.375-9.423s4.775,2.333,9.692,0.652c0.332-5.105-1.033-9.813-4.648-13.699
					C381.372,371.116,370.613,373.753,370.613,373.753z"/>
				<path style="fill:#FFFFFF;" d="M371.33,371.548c0,0,7.154,8.459,19.307,6.081c5.211-1.016,9.082-4.021,11.819-8.349
					c-2.992-4.245-8.228-5.17-8.228-5.17s3.691-3.824,3.615-9.018c-4.756-1.895-9.654-2.047-14.465,0.188
					C372.148,360.503,371.33,371.548,371.33,371.548z"/>
				<path style="fill:#FFA4AF;" d="M376.46,372.157c0,3.867-3.137,7.003-7.004,7.003c-3.867,0-7.002-3.136-7.002-7.003
					c0-3.867,3.135-7.001,7.002-7.001C373.323,365.156,376.46,368.29,376.46,372.157z"/>
			</g>
			<g>
				<path style="fill:#FFFFFF;" d="M345.985,162.496H500v-5.162H375.852c-4.85,0-8.795-3.945-8.795-8.795
					c0-4.85,3.945-8.795,8.795-8.795h28.311c7.696,0,13.957-6.261,13.957-13.957c0-7.695-6.261-13.956-13.957-13.956H291.84v5.162
					h98.49c4.85,0,8.795,3.945,8.795,8.794c0,4.851-3.945,8.796-8.795,8.796h-44.345c-7.695,0-13.956,6.261-13.956,13.956
					C332.029,156.234,338.29,162.496,345.985,162.496z"/>
			</g>
			<g>
				<path style="fill:#43454A;" d="M99.553,335.554H0v-5.162h69.686c4.85,0,8.795-3.945,8.795-8.795c0-4.85-3.945-8.795-8.795-8.795
					H41.375c-7.696,0-13.957-6.261-13.957-13.957c0-7.695,6.261-13.956,13.957-13.956h112.323v5.162h-98.49
					c-4.85,0-8.795,3.945-8.795,8.794c0,4.851,3.945,8.796,8.795,8.796h44.345c7.695,0,13.956,6.261,13.956,13.956
					C113.509,329.292,107.248,335.554,99.553,335.554z"/>
			</g>
			<g>
				<path style="fill:#FFA4AF;" d="M107.387,113.498c0,0,7.059-2.884,8.089-11.348c0.441-3.625-0.702-6.802-2.954-9.509
					c-3.416,1.054-5.135,4.284-5.135,4.284s-1.719-3.23-5.135-4.284c-2.252,2.707-3.396,5.884-2.954,9.509
					C100.328,110.614,107.387,113.498,107.387,113.498z"/>
				<path style="fill:#FFA4AF;" d="M106.097,114.436c0,0-0.563-7.604-8.294-11.198c-3.311-1.542-6.685-1.435-9.958-0.131
					c-0.052,3.574,2.489,6.207,2.489,6.207s-3.602,0.638-5.661,3.562c1.881,2.977,4.547,5.047,8.131,5.747
					C101.171,120.259,106.097,114.436,106.097,114.436z"/>
				<path style="fill:#FFA4AF;" d="M106.588,115.952c0,0-7.405-1.813-13.212,4.427c-2.49,2.672-3.431,5.916-3.202,9.432
					c3.384,1.154,6.674-0.449,6.674-0.449s-0.51,3.623,1.635,6.484c3.414-0.868,6.205-2.765,7.979-5.957
					C110.604,122.436,106.588,115.952,106.588,115.952z"/>
				<path style="fill:#FFA4AF;" d="M108.183,115.954c0,0-4.013,6.481,0.126,13.934c1.774,3.193,4.567,5.09,7.981,5.96
					c2.144-2.861,1.635-6.486,1.635-6.486s3.288,1.605,6.673,0.449c0.229-3.515-0.711-6.756-3.199-9.431
					C115.589,114.139,108.183,115.954,108.183,115.954z"/>
				<path style="fill:#FFA4AF;" d="M108.677,114.436c0,0,4.925,5.823,13.29,4.187c3.587-0.699,6.252-2.768,8.136-5.747
					c-2.059-2.923-5.663-3.559-5.663-3.559s2.541-2.633,2.488-6.208c-3.273-1.304-6.646-1.409-9.957,0.129
					C109.239,106.833,108.677,114.436,108.677,114.436z"/>
				<path style="fill:#FFFFFF;" d="M112.208,114.855c0,2.662-2.159,4.82-4.821,4.82s-4.82-2.158-4.82-4.82s2.158-4.819,4.82-4.819
					S112.208,112.193,112.208,114.855z"/>
			</g>
			<g>
				<path style="fill:none;stroke:#FFFFFF;stroke-width:4;stroke-linecap:round;stroke-miterlimit:10;" d="M41.485,219.099
					c0-8.432,6.838-15.267,15.267-15.267c8.432,0,15.27,6.835,15.27,15.267"/>
				<path style="fill:none;stroke:#FFFFFF;stroke-width:4;stroke-linecap:round;stroke-miterlimit:10;" d="M50.503,219.099
					c0-3.452,2.799-6.249,6.25-6.249c3.454,0,6.251,2.797,6.251,6.249"/>
				<path style="fill:none;stroke:#FFFFFF;stroke-width:4;stroke-linecap:round;stroke-miterlimit:10;" d="M72.022,219.099
					c0-8.432,6.836-15.267,15.267-15.267c8.433,0,15.269,6.835,15.269,15.267"/>
				<path style="fill:none;stroke:#FFFFFF;stroke-width:4;stroke-linecap:round;stroke-miterlimit:10;" d="M81.04,219.099
					c0-3.452,2.797-6.249,6.249-6.249c3.454,0,6.251,2.797,6.251,6.249"/>
				<path style="fill:none;stroke:#FFFFFF;stroke-width:4;stroke-linecap:round;stroke-miterlimit:10;" d="M56.753,203.832
					c0-8.434,6.838-15.268,15.27-15.268c8.433,0,15.267,6.835,15.267,15.268"/>
				<path style="fill:none;stroke:#FFFFFF;stroke-width:4;stroke-linecap:round;stroke-miterlimit:10;" d="M65.771,206.79v-2.958
					c0-3.452,2.798-6.251,6.251-6.251c3.454,0,6.25,2.799,6.25,6.251v2.958"/>
			</g>
			<g>
				<path style="fill:none;stroke:#43454A;stroke-width:3;stroke-linecap:round;stroke-miterlimit:10;" d="M398.083,258.529
					c0-6.783,5.501-12.281,12.282-12.281c6.782,0,12.283,5.498,12.283,12.281"/>
				<path style="fill:none;stroke:#43454A;stroke-width:3;stroke-linecap:round;stroke-miterlimit:10;" d="M405.337,258.529
					c0-2.777,2.252-5.027,5.028-5.027c2.778,0,5.028,2.25,5.028,5.027"/>
				<path style="fill:none;stroke:#43454A;stroke-width:3;stroke-linecap:round;stroke-miterlimit:10;" d="M422.648,258.529
					c0-6.783,5.499-12.281,12.281-12.281c6.783,0,12.283,5.498,12.283,12.281"/>
				<path style="fill:none;stroke:#43454A;stroke-width:3;stroke-linecap:round;stroke-miterlimit:10;" d="M429.902,258.529
					c0-2.777,2.25-5.027,5.027-5.027c2.778,0,5.028,2.25,5.028,5.027"/>
				<path style="fill:none;stroke:#43454A;stroke-width:3;stroke-linecap:round;stroke-miterlimit:10;" d="M410.365,246.248
					c0-6.784,5.5-12.283,12.283-12.283c6.783,0,12.281,5.499,12.281,12.283"/>
				<path style="fill:none;stroke:#43454A;stroke-width:3;stroke-linecap:round;stroke-miterlimit:10;" d="M417.62,248.628v-2.38
					c0-2.777,2.25-5.028,5.028-5.028c2.778,0,5.027,2.251,5.027,5.028v2.38"/>
			</g>
		</g>
		<g>
			<path style="fill:#FFA4AF;" d="M199.122,365.516c-13.645-3.946-25.685-27.625-27.152-34.607
				c-1.01,33.303,20.677,42.574,22.452,42.605c1.776,0.032,1.837,0.418,1.582,1.218c-3.936,4.787-13.973,3.694-22.722-3.737
				c-8.525-5.19-16.533-13.551-22.645-38.153c-6.11-24.602,1.527-51.094,1.527-51.094c-3.963,5.424-11.563,20.777-12.277,45.432
				c-0.712,24.652,8.515,28.655,8.013,29.493c-0.502,0.837-7.377,2.189-11.442-4.417c-3.399-5.523-8.172-14.286-6.364-36.787
				c1.807-22.499,15.543-48.012,34.231-76.98c18.689-28.969,25.395-66.457,26.398-110.069l117.346-13.063
				c7.707,42.938,20.105,78.946,43.031,104.692c22.926,25.746,40.426,48.84,45.676,70.793c5.25,21.953,1.884,31.347-0.625,37.328
				c-3,7.152-10,6.875-10.625,6.125s7.875-6.125,3.375-30.375s-14.375-38.25-19.125-43c0,0,11.625,25,9.375,50.25
				s-8.875,34.744-16.5,41.185c-7.5,8.69-17.25,11.315-21.875,7.19c-0.375-0.75-0.375-1.141,1.375-1.445s21.75-12.805,15.625-45.555
				c-0.375,7.125-8.625,32.375-21.5,38.375L199.122,365.516z"/>
			<path style="opacity:0.5;fill:#FFA4AF;" d="M199.122,365.516l137.154-14.597c12.875-6,21.125-31.25,21.5-38.375
				c0.834-13.5-18.129-76.612-28.557-92.761c-8.143-12.611-13.088-48.668-13.711-71.042c-2.902-10.574-5.346-21.723-7.439-33.386
				l-117.346,13.063c-1.004,43.612-7.71,81.101-26.398,110.069c-18.688,28.969-32.425,54.482-34.231,76.98
				c-1.808,22.501,2.965,31.264,6.364,36.787c4.065,6.605,10.94,5.254,11.442,4.417c0.502-0.838-8.725-4.841-8.013-29.493
				c0.714-24.654,8.314-40.008,12.277-45.432c0,0-7.638,26.491-1.527,51.094c6.111,24.603,14.119,32.963,22.645,38.153
				c8.749,7.432,18.786,8.524,22.722,3.737c0.255-0.8,0.194-1.186-1.582-1.218c-1.775-0.031-23.462-9.303-22.452-42.605
				C173.438,337.891,185.477,361.569,199.122,365.516z"/>
			<g>
				<path style="fill:#43454A;" d="M366.276,458.71c0,0,25.136,33.81,30.151,40.738h-62.983V458.71H366.276z"/>
				<path style="fill:#242629;" d="M373.776,457.294c1.5,2.916-1.166,6.916-5.5,10.083c-4.334,3.167-11.333,9.667-4.333,14.167
					s28,9.914,32.833,18.457h-68.333v-62.957C328.443,437.044,360.276,441.211,373.776,457.294z"/>
				<path style="fill:#FFFFFF;" d="M298.537,353.811c0,0,44.739,83.147,69.739,146.19h-274l90-150.957L298.537,353.811z"/>
				<path style="opacity:0.2;fill:#43454A;" d="M298.537,353.811l-114.261-4.768l-90,150.957h94.879
					c3.687-2.442,5.851-5.603,7.141-9.624c3.314-10.333-0.744-16.667,7.785-19c8.529-2.333,24.196-6.667,29.196-15
					c5-8.333,5.911-30.333,6.289-33.333s10.923-5.133,15.983-10.233c5.061-5.1,9.199-21.595,9.199-21.595
					s7.024,12.827,13.776,16.494c6.752,3.667,8.892,9.667,11.488,21.667c2.597,12,4.931,27.333,20.931,29.333s24.667,3.333,29,12
					c2.328,4.656,6.726,17.966,10.299,29.291h18.033C343.276,436.958,298.537,353.811,298.537,353.811z"/>
				<polygon style="fill:#242629;" points="224.188,445.716 231.276,387.877 170.11,396.044 134.277,464.544 149.61,479.544 
					174.651,483.919 182.776,451.877 				"/>
				<polygon style="fill:#242629;" points="284.277,387.877 301.149,439.254 333.444,430.544 322.11,404.71 				"/>
				<path style="fill:#43454A;" d="M351.651,426.919c-15.125-20.375-49-76-49-76v-7.625H179.104c0,0-22.077,19.25-47.827,60.25
					s-57.375,96.457-57.375,96.457h28.5c4.5-2.168,22.375-5.207,36.75-6.582s35.875-4.125,35.5-9.5s-16.375-7.875-23.75-13
					s-3-9.875,2.5-10.625s25,0.125,39.5-1.625s29.5-7.5,31-11.5s-3-7.5-10.125-10.25s-14.667-5.207-13.167-12.041
					c1.5-6.834,9.834-9.166,20.667-13.833c10.833-4.667,24.167-5.667,34.273-18.5c4.967-6.307,7.255-15.468,8.301-23.158
					c2.697,9.867,6.809,17.111,11.301,24.157c6.491,10.183,32.25,13.25,39.125,16.75s5,11.75,1.375,13.875s-13.75,6.75-14.5,13.25
					s6,9.125,15.25,8.875s24.625-1.125,37.875,1.5s19.5,9.5,19.5,9.5C373.026,455.419,366.776,447.294,351.651,426.919z"/>
				<path style="fill:#242629;" d="M223.551,364.306c0,0-1.483,3.34-3.709,8.349c-0.569,1.245-1.14,2.616-1.762,4.057
					c-0.624,1.44-1.281,2.959-1.962,4.529c-0.666,1.577-1.354,3.207-2.053,4.863c-0.35,0.827-0.701,1.662-1.056,2.5
					c-0.34,0.843-0.682,1.69-1.023,2.535c-0.694,1.688-1.389,3.378-2.072,5.04c-0.702,1.654-1.308,3.316-1.927,4.912
					c-0.625,1.594-1.23,3.134-1.805,4.595c-0.592,1.454-1.113,2.844-1.567,4.136c-0.956,2.568-1.752,4.709-2.309,6.207
					c-0.572,1.494-0.899,2.349-0.899,2.349l-0.003,0.008c-0.053,0.139-0.208,0.208-0.347,0.155c-0.132-0.051-0.201-0.195-0.16-0.329
					c0,0,0.266-0.876,0.732-2.408c0.48-1.528,1.168-3.713,1.992-6.333c0.411-1.313,0.886-2.723,1.429-4.2
					c0.532-1.481,1.093-3.044,1.674-4.659c0.601-1.609,1.188-3.285,1.871-4.953c0.666-1.676,1.342-3.379,2.018-5.081
					c0.657-1.711,1.389-3.39,2.113-5.041c0.72-1.653,1.427-3.281,2.111-4.855c0.682-1.576,1.397-3.074,2.068-4.498
					c0.675-1.423,1.294-2.775,1.908-4.005c2.401-4.942,4.189-8.145,4.189-8.145c0.083-0.148,0.27-0.201,0.418-0.119
					C223.56,363.991,223.613,364.163,223.551,364.306z"/>
				<path style="fill:#242629;" d="M204.024,370.1c-0.001,0-0.965,1.345-2.592,3.731c-0.817,1.191-1.811,2.638-2.949,4.297
					c-1.113,1.678-2.382,3.561-3.779,5.607c-1.399,2.043-2.899,4.268-4.447,6.647c-1.567,2.365-3.221,4.859-4.931,7.44
					c-1.708,2.581-3.408,5.292-5.171,8.022c-1.743,2.743-3.563,5.5-5.294,8.311c-1.736,2.808-3.473,5.615-5.182,8.379
					c-1.711,2.764-3.412,5.473-4.931,8.17c-1.563,2.671-3.075,5.252-4.508,7.701c-1.412,2.459-2.855,4.728-3.984,6.931
					c-2.37,4.349-4.345,7.973-5.727,10.51c-1.387,2.536-2.18,3.985-2.18,3.985l-0.006,0.011c-0.071,0.13-0.234,0.178-0.364,0.106
					c-0.127-0.069-0.175-0.227-0.11-0.355c0,0,0.744-1.477,2.047-4.061c1.307-2.583,3.175-6.273,5.415-10.701
					c1.091-2.232,2.491-4.528,3.859-7.021c1.396-2.477,2.869-5.089,4.393-7.791c1.504-2.714,3.189-5.439,4.885-8.22
					c1.694-2.781,3.415-5.607,5.136-8.433c1.704-2.836,3.577-5.565,5.329-8.311c1.782-2.725,3.501-5.43,5.227-8.006
					c1.745-2.563,3.432-5.041,5.031-7.391c1.596-2.352,3.14-4.551,4.581-6.57c1.429-2.027,2.751-3.878,3.933-5.51
					c1.198-1.621,2.243-3.035,3.102-4.199c1.713-2.334,2.722-3.642,2.722-3.642l0.004-0.005c0.104-0.134,0.296-0.158,0.43-0.055
					C204.093,369.779,204.119,369.966,204.024,370.1z"/>
				<path style="fill:#242629;" d="M191.007,358.301c0,0-2.734,3.35-6.837,8.374c-2.046,2.514-4.434,5.447-6.991,8.591
					c-2.571,3.132-5.226,6.543-7.951,9.897c-1.335,1.698-2.671,3.395-3.985,5.067c-1.305,1.679-2.63,3.301-3.839,4.925
					c-1.227,1.61-2.412,3.168-3.537,4.645c-1.121,1.479-2.207,2.86-3.165,4.166c-1.904,2.622-3.491,4.807-4.602,6.335
					c-1.124,1.522-1.767,2.393-1.767,2.393l-0.007,0.009c-0.088,0.119-0.256,0.145-0.375,0.057
					c-0.114-0.085-0.142-0.244-0.066-0.362c0,0,0.59-0.907,1.623-2.496c1.047-1.58,2.541-3.839,4.335-6.55
					c0.923-1.337,1.969-2.751,3.051-4.267c1.091-1.509,2.24-3.1,3.431-4.746c1.196-1.642,2.506-3.279,3.797-4.977
					c1.301-1.69,2.621-3.405,3.942-5.121c1.343-1.698,2.725-3.365,4.065-5.022c1.35-1.649,2.656-3.29,3.968-4.839
					c2.591-3.125,5.069-5.991,7.206-8.435c2.117-2.462,3.956-4.45,5.223-5.859c1.27-1.405,2.02-2.186,2.02-2.186
					c0.115-0.123,0.31-0.13,0.434-0.014C191.097,357.992,191.105,358.177,191.007,358.301z"/>
				<path style="fill:#242629;" d="M293.038,365.135c0,0,0.45,0.646,1.196,1.807c0.741,1.163,1.835,2.806,3.05,4.832
					c1.234,2.017,2.671,4.372,4.131,6.94c0.747,1.275,1.478,2.616,2.234,3.971c0.749,1.359,1.533,2.728,2.275,4.118
					c0.721,1.402,1.442,2.805,2.153,4.186c0.702,1.384,1.424,2.729,2.066,4.063c0.647,1.33,1.234,2.635,1.811,3.861
					c0.569,1.23,1.106,2.394,1.603,3.468c0.897,2.191,1.645,4.018,2.168,5.296c0.508,1.282,0.799,2.015,0.799,2.015
					c0.055,0.139-0.013,0.294-0.15,0.349c-0.131,0.052-0.277-0.006-0.339-0.13l-0.007-0.012c0,0-0.349-0.706-0.959-1.94
					c-0.596-1.238-1.446-3.008-2.467-5.131c-1.073-2.097-2.324-4.544-3.666-7.166c-0.658-1.316-1.397-2.648-2.116-4.017
					c-0.727-1.365-1.466-2.752-2.204-4.138c-1.527-2.747-2.975-5.537-4.42-8.105c-0.726-1.282-1.412-2.53-2.05-3.722
					c-0.653-1.183-1.271-2.301-1.841-3.333c-2.274-4.136-3.791-6.893-3.791-6.893c-0.082-0.148-0.027-0.335,0.121-0.417
					c0.139-0.076,0.31-0.033,0.398,0.093L293.038,365.135z"/>
			</g>
			<g>
				<g>
					<path style="fill:#E69792;" d="M132.618,336.64c4.224-3.235,15.075-10.263,18.658-13.346c3.583-3.083,7.167-7.917,7.167-7.917
						v-24.416h-25.063L132.618,336.64z"/>
					<path style="fill:#242629;" d="M302.651,350.919v-7.625H179.104c0,0-2.152,1.877-5.896,5.706
						c3.65,2.037,28.353,13.3,90.455,12.357c15.638-0.237,35.623-3.284,42.264-5.092
						C303.862,352.907,302.651,350.919,302.651,350.919z"/>
					<path style="fill:#E69792;" d="M345.86,314.627c0,9.417-1.666,21.167-2.333,24.417c-0.667,3.25-2.622,8.014-2.622,8.014H327.86
						v-32.431H345.86z"/>
					<path style="fill:#FFAF24;" d="M347.276,304.919c1.375,6.375,0.125,10.625,0,11.375s-25.604,9.496-48.739,3.436v-13.061
						L347.276,304.919z"/>
					<path style="fill:#FFFFFF;" d="M312.571,208.733c0,0,9.33,3.936,11.58,5.186s4.875,5.25,6.25,8s25,61.875,25.375,67.75
						s-8.5,15.25-8.5,15.25s-20.25,7.5-44.625,3.875v-99.375L312.571,208.733z"/>
					<path style="fill:#FFFFFF;" d="M194.955,191.461l-8.261,1.666c0,0-9.166,1.334-11.5,2.084
						c-2.334,0.75-12.085,15.166-21.751,37.416c-10.583,11.417-18.75,21.916-19.5,23.833c-0.75,1.917-0.75,12.251,0,16.584
						l34.584,34.5c0,0,5.916-0.584,8.083-1.084c2.167-0.5,5.167-1.916,5.167-1.916s-2.834,2.666-2.667,3.666
						c0.167,1,3.584,5.167,3.584,5.167s24.416,11.168,80.416,11.168c8.669,0,39.334-5.5,39.334-5.5s17.167-32.498,16.833-45.999
						c-0.334-13.501-6.438-53.334-6.438-53.334L194.955,191.461z"/>
					<path style="opacity:0.2;fill:#43454A;" d="M213.443,266.337c-0.584-0.125-20.458,4.583-20.25,4.416
						c0.208-0.167,5.959-5.916,6.542-6.166c0.583-0.25,4.292-0.584,5.833-2.459c1.541-1.875,2.834-7.541,2.75-7.916
						c-0.084-0.375-0.833,0.416-2.875,2.833c-1.925,2.277-9.358,9.953-14.359,13.585c1.301-4.016,5.907-19.815,5.192-40.275
						c-0.773-22.131-9.116-35.344-10.307-37.12c-0.47,0.07-1.14,0.173-1.93,0.297l1.082,0.233
						c1.045,1.549,9.385,14.591,10.154,36.625c0.82,23.456-5.406,40.727-5.47,40.898l-0.026,0.113
						c-0.028,0.238-2.841,23.932-3.822,27.855c-0.762,3.047-3.146,4.317-4.014,4.687l-0.167,0.601c0,0-2.834,2.666-2.667,3.666
						c0.167,1,3.584,5.167,3.584,5.167s4.833,2.205,15.099,4.654c-5.239-4.366-8.304-11.003-8.1-14.071
						c0.25-3.75,0.916-21.749,2.416-26.833c1.5-5.084,5.668-5.832,6.584-5.874c0.916-0.042,6.167-0.208,8.084-0.791
						C208.694,269.879,214.027,266.462,213.443,266.337z"/>
					<path style="fill:#FFA4AF;" d="M182.026,312.544c0,0-1.125,1.125-1.625,3.375s-3.25,23.125-3.625,25.75s-1.125,2.875,0,3.75
						s23.5,13.625,85.5,12.625c17.667-0.285,41.25-4.625,41.875-6s0.461-24.623-1.707-32.999
						C281.901,323.294,245.901,328.419,182.026,312.544z"/>
					<path style="opacity:0.5;fill:#FFA4AF;" d="M196.979,315.994c0.003-0.003,0.006-0.005,0.01-0.008
						c-4.815-1.021-9.788-2.156-14.962-3.442c0,0-1.125,1.125-1.625,3.375s-3.25,23.125-3.625,25.75s-1.125,2.875,0,3.75
						c0.584,0.455,6.908,4.113,21.538,7.385C192.1,341.435,186.022,324.361,196.979,315.994z"/>
					<path style="opacity:0.5;fill:#FFA4AF;" d="M262.276,358.044c4.164-0.067,8.655-0.361,13.099-0.787
						c0.014-0.157,0.026-0.314,0.028-0.479l0.018-1.803l0.078-7.802l3.152-5.098c0.001-0.002,0.002-0.004,0.003-0.006l0.884-1.429
						l0.887-1.435c1.73-2.806,0.621-6.043-2.469-7.195l-1.791-0.669l-7.411-2.766l-4.425-5.266
						c-3.489,0.06-7.168,0.038-11.044-0.081l-0.443,0.58c-0.001,0.002-0.003,0.004-0.005,0.006l-3.64,4.761l-5.6,2.15
						c0,0-0.001,0.001-0.002,0.001l-1.601,0.614l-1.604,0.616c-3.078,1.184-4.06,4.367-2.181,7.077l1.114,1.605l1.112,1.603
						c0.001,0.001,0.001,0.002,0.002,0.003l3.419,4.927l0.668,7.802l0.157,1.824c0.035,0.406,0.109,0.793,0.218,1.156
						C250.313,358.104,256.095,358.144,262.276,358.044z"/>
					<path style="fill:#FFAF24;" d="M283.456,332.012l-1.791-0.669l-7.411-2.766l-5.12-6.094l-1.26-1.5
						c-2.121-2.524-5.494-2.449-7.499,0.168l-1.019,1.332l-1.015,1.327c-0.001,0.002-0.003,0.004-0.005,0.006l-3.64,4.761l-5.6,2.15
						c0,0-0.001,0.001-0.002,0.001l-1.601,0.614l-1.604,0.616c-3.078,1.184-4.06,4.367-2.181,7.077l1.114,1.605l1.112,1.603
						c0.001,0.001,0.001,0.002,0.002,0.003l3.419,4.927l0.668,7.802l0.157,1.824c0.281,3.285,3.11,5.258,6.288,4.386l1.684-0.464
						l1.675-0.463c0.003-0.001,0.006-0.001,0.008-0.002l5.776-1.593l5.787,1.563c0.001,0,0.003,0,0.005,0.001l1.823,0.493
						l1.827,0.493c3.184,0.857,5.814-1.139,5.847-4.437l0.018-1.803l0.078-7.802l3.152-5.098c0.001-0.002,0.002-0.004,0.003-0.006
						l0.884-1.429l0.887-1.435C287.655,336.401,286.546,333.164,283.456,332.012z"/>
					<g style="opacity:0.2;">
						<path style="fill:#FFFFFF;" d="M261.012,320.456c-0.224,0.209-0.439,0.437-0.637,0.695l-1.019,1.332l-1.015,1.327
							c-0.001,0.002-0.003,0.004-0.005,0.006l-2.787,3.646l25.396,25.024l0.053-5.313l2.698-4.363L261.012,320.456z"/>
						<path style="fill:#FFFFFF;" d="M249.854,330.438l-0.756,0.29c0,0-0.001,0.001-0.002,0.001l-1.601,0.614l-1.604,0.616
							c-3.078,1.184-4.06,4.367-2.181,7.077l1.114,1.605l1.112,1.603c0.001,0.001,0.001,0.002,0.002,0.003l3.044,4.387
							l13.176,12.982l3.455-0.952l5.787,1.563c0.001,0,0.003,0,0.005,0.001l1.823,0.493l1.827,0.493
							c1.942,0.523,3.676-0.021,4.741-1.27L249.854,330.438z"/>
					</g>
					<path style="fill:#FFAF24;" d="M133.943,273.044c9.333,1.375,29.718,9.846,35.338,34.423c0,0-8.005,7.452-8.505,8.077
						s-3.25,1.125-3.25,1.125s-10.875-22.75-33.375-30.125c0,0-1.25-2,0-3.625S133.943,273.044,133.943,273.044z"/>
				</g>
				<g>
					<path style="fill:#FFA4AF;" d="M202.401,211.919c2,22.125,3.5,40.607,16.625,50.741c13.125,10.134,45,11.384,45,11.384
						s31.5,1.5,38.375-10.75c6.875-12.25,9.52-37.875,9.52-37.875h-86.895L202.401,211.919z"/>
					<path style="fill:#FFA4AF;" d="M261.401,271.46c-8.395,1.625-16.188,6.584-18.938,14.084s2.813,21.75,4,23.563
						s2.375,1.25,3.5-0.5s14.721-28.25,14.721-28.25L261.401,271.46z"/>
					<path style="fill:#FFA4AF;" d="M270.321,271.46c8.395,1.625,16.188,6.584,18.938,14.084s-2.813,21.75-4,23.563
						s-2.375,1.25-3.5-0.5s-14.721-28.25-14.721-28.25L270.321,271.46z"/>
					<path style="opacity:0.5;fill:#FFA4AF;" d="M257.161,269.544c0,0,5.803,9.75,6.428,11s3.25,2,4.938,0s5.875-7.322,6.375-11
						H257.161z"/>
					<path style="fill:#FFA4AF;" d="M260.776,270.972c0,0,2.188,8.322,2.813,9.572s3.25,2,4.938,0s2.688-5.895,3.188-9.572H260.776z
						"/>
				</g>
				<g>
					<path style="fill:#F4D6CC;" d="M282.526,139.579c0,0-3.01,15.09-3.755,25.09c-0.745,10,2.755,29.25,16.63,35.125v33.25h-71.375
						v-46.732c0,0,14.572-3.018,13.724-8.518c-0.849-5.5-6.708-18.938-8.466-23.094v-15.121H282.526z"/>
					<path style="fill:#43454A;" d="M237.75,214.878c9.193-9.25,22.574-13.558,25.151-13.584c5.25-0.053,15.209,6.5,24.042,16.417
						v36.678c0,0-18.666,18.489-21.25,18.656c-2.584,0.167-17.668-16.166-20.334-21.583
						C242.693,246.045,237.75,214.878,237.75,214.878z"/>
					<path style="opacity:0.3;fill:#43454A;" d="M245.359,251.462c2.422,4.92,15.087,18.845,19.325,21.231
						c-0.711-20.962-3.571-56.938-4.283-60.024c-0.75-3.25-3.875-5.75-7.375-4.375c-2.308,0.906-8.53,4.913-14.865,9.112
						C239.398,224.925,243.155,246.983,245.359,251.462z"/>
					<path style="fill:#F4D6CC;" d="M259.714,180.919c8.248-1.202,14.815-5.686,19.146-9.604c-0.215-2.45-0.232-4.721-0.088-6.646
						c0.745-10,3.755-25.09,3.755-25.09h-53.242V154.7c1.501,3.549,5.983,13.852,7.792,20.215
						C241.924,178.222,250.13,182.315,259.714,180.919z"/>
					<path style="fill:#43454A;" d="M279.819,177.618c0.223-2.621-0.215-6.855-1.125-9.183c-15.232,12.931-34.617,8.771-41.766,5.97
						c0.556,3.015-0.156,6.586-1.989,7.804c4.393,1.602,11.013,3.17,18.537,3.17C261.766,185.379,271.144,183.472,279.819,177.618z"
						/>
				</g>
				<path style="fill:#FFAF24;" d="M236.966,178.284c0,0-1.427-0.619-3.188,0c-1.762,0.619-16.751,7.045-19.417,8.027
					c-15.333,2.649-21.582,3.982-22.416,4.232c-0.834,0.25-0.834,1.001-0.834,1.667c0,0.666,8.416,24.832,16.583,39.749
					c8.167,14.917,17.334,23.168,20.584,25.501s34.916,17.166,35.666,17.333c0.75,0.167,2.084,0.25,3.917-0.5
					c1.833-0.75,29.918-15.167,33.584-22.167c3.666-7,16.083-39.501,16.333-40.417c0.25-0.916-0.251-2.334-0.834-3
					c-0.583-0.666-21.667-13.25-26.583-17.833c-4.916-4.583-5.916-7.583-7.083-8.833c-1.167-1.25-3.03-2.619-3.03-2.619
					s1.438,6.358,4.08,10.159c0.867,6.793-5.051,56.585-18.176,82.085c0,0-1,0.875-2.125-1.25s-21.5-49.625-24.75-63
					S234.78,187.087,236.966,178.284z"/>
				<g>
					<path style="fill:#FFFFFF;" d="M316.03,208.068c-0.61-0.4-1.495-0.962-2.584-1.648c-5.438,14.386-14.176,37.137-15.854,40.142
						c-2.199,3.936-5.276,6.235-7.996,7.966c-2.005,1.276-14.629,8.311-20.955,11.825c-0.689,1.607-1.402,3.149-2.139,4.618
						c1.048-0.581,21.959-12.165,24.705-13.912c2.857-1.819,6.464-4.489,9.004-9.034C302.16,244.537,312.044,218.598,316.03,208.068
						z"/>
					<path style="fill:#FFFFFF;" d="M287.77,252.681c2.858-1.819,6.464-4.489,9.004-9.034c1.849-3.308,10.823-26.782,15.147-38.186
						c-0.804-0.506-1.672-1.051-2.589-1.63c-5.458,14.41-13.567,35.47-15.178,38.352c-2.199,3.936-5.276,6.235-7.996,7.966
						c-1.436,0.914-8.318,4.781-14.434,8.194c-0.511,1.472-1.038,2.913-1.581,4.316C276.814,258.946,286.012,253.799,287.77,252.681
						z"/>
					<path style="fill:#FFFFFF;" d="M229.373,253.866c13.249,9.999,34.389,17.247,35.408,17.594
						c-0.238-0.219-0.493-0.546-0.755-1.041c-0.145-0.272-0.608-1.297-1.31-2.896c-6.398-2.396-21.525-8.495-31.496-16.02
						c-15.107-12.237-28.885-49.444-33.283-62.218c-1.183,0.229-2.166,0.425-2.982,0.591
						C199.256,202.53,213.263,240.817,229.373,253.866z"/>
					<path style="fill:#FFFFFF;" d="M203.645,188.214c-1.073,0.196-2.083,0.383-2.994,0.554
						c4.571,13.698,17.505,49.268,32.309,61.684c9.15,7.151,22.231,12.867,29.119,15.606c-0.495-1.139-1.067-2.467-1.701-3.949
						c-7.106-2.978-17.9-8.026-25.53-13.988C220.979,236.487,208.285,201.947,203.645,188.214z"/>
				</g>
			</g>
			<g>
				<path style="fill:#94D468;" d="M287.504,71.909c0,0,0.046-0.066,0.136-0.195c0.09-0.132,0.223-0.317,0.397-0.53
					c0.176-0.22,0.393-0.49,0.648-0.809c0.261-0.294,0.563-0.621,0.906-0.968c0.345-0.327,0.728-0.724,1.153-1.074
					c0.422-0.374,0.896-0.767,1.385-1.12c0.979-0.737,2.099-1.463,3.333-2.126c1.235-0.677,2.577-1.226,4.005-1.659
					c1.425-0.438,2.935-0.772,4.497-0.959c1.558-0.143,3.166-0.144,4.79-0.01c1.622,0.135,3.268,0.302,4.901,0.666
					c1.633,0.345,3.258,0.728,4.838,1.209c0.789,0.24,1.568,0.471,2.334,0.768c0.766,0.302,1.516,0.63,2.25,0.959
					c1.464,0.672,2.858,1.389,4.153,2.134c0.648,0.37,1.27,0.757,1.867,1.134c0.596,0.387,1.16,0.84,1.697,1.255
					c1.068,0.865,2.024,1.687,2.847,2.479c0.822,0.789,1.514,1.522,2.069,2.159c1.11,1.266,1.673,2.16,1.672,2.158
					c0.175,0.278,0.092,0.646-0.185,0.818c-0.01,0.007-0.021,0.013-0.029,0.017l-0.021,0.012c0-0.001-0.964,0.529-2.525,1.153
					c-0.78,0.317-1.711,0.663-2.748,1.008c-1.037,0.343-2.179,0.664-3.4,0.98c-0.611,0.159-1.227,0.267-1.882,0.44
					c-0.653,0.163-1.324,0.325-2.006,0.467c-1.362,0.288-2.771,0.523-4.207,0.697c-0.717,0.078-1.44,0.152-2.167,0.198
					c-0.73,0.063-1.479,0.153-2.221,0.201c-1.489,0.118-2.98,0.132-4.465,0.108c-1.478-0.062-2.968-0.084-4.425-0.181
					c-1.458-0.098-2.882-0.325-4.258-0.687c-1.378-0.314-2.711-0.746-3.979-1.29c-1.27-0.546-2.476-1.195-3.594-1.861
					c-1.121-0.682-2.159-1.424-3.091-2.177c-0.922-0.715-1.727-1.471-2.415-2.121c-0.684-0.658-1.246-1.279-1.634-1.696
					c-0.192-0.199-0.341-0.372-0.441-0.499c-0.1-0.12-0.15-0.182-0.15-0.182C287.326,72.531,287.32,72.169,287.504,71.909z"/>
				<path style="opacity:0.4;fill:#94D468;" d="M288.498,73.16c0.635,0.131,1.566,0.338,2.634,0.501
					c1.066,0.151,2.312,0.325,3.636,0.382c1.361,0.088,2.814,0.094,4.304-0.01c1.477-0.117,3.023-0.306,4.561-0.633
					c1.536-0.33,3.058-0.805,4.546-1.418c1.516-0.569,2.988-1.293,4.406-2.162c1.416-0.869,2.815-1.827,4.229-2.74
					c1.062-0.728,2.104-1.493,3.121-2.29c-0.476-0.158-0.957-0.309-1.442-0.456c-1.58-0.481-3.205-0.864-4.838-1.209
					c-1.634-0.364-3.279-0.531-4.901-0.666c-1.624-0.134-3.232-0.133-4.79,0.01c-1.562,0.187-3.072,0.521-4.497,0.959
					c-1.428,0.433-2.77,0.983-4.005,1.659c-1.234,0.663-2.353,1.389-3.333,2.126c-0.489,0.354-0.963,0.746-1.385,1.12
					c-0.426,0.351-0.809,0.747-1.153,1.074c-0.344,0.347-0.646,0.674-0.906,0.968c-0.255,0.318-0.472,0.589-0.648,0.809
					c-0.175,0.213-0.308,0.398-0.397,0.53c-0.09,0.129-0.136,0.195-0.136,0.195c-0.184,0.26-0.178,0.622,0.036,0.878
					c0,0,0.051,0.062,0.148,0.179c0.025,0.007,0.04,0.011,0.072,0.02C287.938,73.037,288.189,73.101,288.498,73.16z"/>
				<path style="fill:#94D468;" d="M286.716,72.294c0,0-0.022-0.089-0.066-0.262c-0.048-0.177-0.108-0.429-0.161-0.737
					c-0.059-0.314-0.132-0.703-0.217-1.159c-0.06-0.442-0.117-0.946-0.16-1.5c-0.026-0.54-0.082-1.165-0.068-1.792
					c-0.01-0.642,0.005-1.343,0.063-2.026c0.093-1.393,0.299-2.896,0.645-4.452c0.335-1.568,0.859-3.134,1.546-4.686
					c0.683-1.554,1.517-3.104,2.517-4.588c1.035-1.449,2.229-2.836,3.551-4.137c1.322-1.298,2.689-2.592,4.217-3.729
					c1.511-1.15,3.048-2.268,4.637-3.271c0.795-0.501,1.572-1.003,2.397-1.441c0.83-0.436,1.669-0.839,2.498-1.227
					c1.667-0.764,3.321-1.431,4.926-1.994c0.801-0.283,1.596-0.532,2.365-0.768c0.776-0.226,1.586-0.375,2.343-0.529
					c1.54-0.278,2.96-0.491,4.252-0.612c1.291-0.122,2.438-0.173,3.399-0.178c1.916-0.018,3.104,0.163,3.104,0.163
					c0.369,0.056,0.623,0.4,0.566,0.769c-0.002,0.013-0.004,0.025-0.007,0.037l-0.005,0.026c-0.001,0-0.262,1.225-0.882,3.033
					c-0.307,0.909-0.7,1.967-1.175,3.117c-0.475,1.15-1.047,2.372-1.682,3.66c-0.317,0.645-0.682,1.256-1.02,1.949
					c-0.345,0.684-0.703,1.383-1.087,2.075c-0.765,1.389-1.609,2.778-2.527,4.144c-0.464,0.677-0.939,1.356-1.439,2.017
					c-0.488,0.677-0.967,1.388-1.478,2.063c-1.004,1.372-2.102,2.668-3.225,3.93c-1.151,1.228-2.278,2.494-3.444,3.679
					c-1.167,1.185-2.422,2.242-3.756,3.16c-1.296,0.954-2.658,1.781-4.07,2.471c-1.413,0.688-2.869,1.244-4.274,1.714
					c-1.42,0.459-2.832,0.803-4.174,1.047c-1.3,0.264-2.55,0.395-3.622,0.505c-1.075,0.099-2.028,0.122-2.676,0.147
					c-0.314,0.018-0.574,0.017-0.758,0.009c-0.178-0.003-0.271-0.005-0.271-0.005C287.12,72.908,286.805,72.645,286.716,72.294z"/>
				<path style="fill:#43454A;" d="M284.686,15.544c-2.509-0.625-25.807,7.375-34.432,30.836l43.426,22.914
					C303.63,38.32,287.195,16.169,284.686,15.544z"/>
				<path style="fill:#FFFFFF;" d="M283.107,33.97c-1.887-0.47-19.415,5.549-25.904,23.199l32.671,17.239
					C297.359,51.105,284.995,34.44,283.107,33.97z"/>
			</g>
			<g>
				<path style="fill:#94D468;" d="M194.615,94.602c0,0-0.068-0.041-0.203-0.123c-0.137-0.083-0.334-0.197-0.581-0.319
					c-0.25-0.128-0.56-0.285-0.922-0.472c-0.358-0.16-0.77-0.334-1.225-0.51c-0.448-0.155-0.96-0.359-1.493-0.503
					c-0.539-0.168-1.132-0.332-1.724-0.453c-1.195-0.268-2.513-0.47-3.912-0.567c-1.403-0.108-2.853-0.059-4.332,0.135
					c-1.479,0.187-2.993,0.503-4.493,0.975c-1.479,0.513-2.945,1.172-4.371,1.962c-1.423,0.79-2.854,1.619-4.193,2.621
					c-1.348,0.988-2.67,2.005-3.913,3.093c-0.62,0.543-1.237,1.073-1.812,1.659c-0.574,0.589-1.123,1.197-1.656,1.8
					c-1.06,1.214-2.034,2.44-2.909,3.651c-0.439,0.604-0.847,1.213-1.235,1.804c-0.385,0.597-0.713,1.241-1.031,1.841
					c-0.619,1.228-1.152,2.369-1.576,3.429c-0.425,1.058-0.754,2.011-0.999,2.82c-0.491,1.609-0.637,2.655-0.637,2.653
					c-0.044,0.327,0.183,0.627,0.507,0.671c0.011,0.002,0.023,0.004,0.033,0.005l0.023,0.002c0-0.002,1.097,0.085,2.775,0.012
					c0.842-0.031,1.833-0.098,2.92-0.211c1.087-0.113,2.26-0.29,3.502-0.504c0.623-0.106,1.229-0.262,1.898-0.373
					c0.662-0.119,1.339-0.247,2.019-0.398c1.36-0.297,2.743-0.661,4.122-1.095c0.686-0.224,1.376-0.453,2.057-0.711
					c0.691-0.242,1.412-0.469,2.107-0.729c1.406-0.505,2.771-1.105,4.113-1.737c1.323-0.664,2.672-1.296,3.96-1.982
					c1.289-0.688,2.493-1.482,3.6-2.378c1.126-0.854,2.164-1.795,3.097-2.813c0.932-1.019,1.765-2.106,2.51-3.174
					c0.742-1.081,1.383-2.186,1.922-3.254c0.547-1.032,0.97-2.053,1.33-2.929c0.353-0.881,0.609-1.678,0.792-2.218
					c0.093-0.261,0.157-0.479,0.196-0.636c0.043-0.149,0.063-0.228,0.063-0.228C195.034,95.095,194.889,94.764,194.615,94.602z"/>
				<path style="opacity:0.4;fill:#94D468;" d="M194.615,94.602c0,0-0.068-0.041-0.203-0.123c-0.137-0.083-0.334-0.197-0.581-0.319
					c-0.25-0.128-0.56-0.285-0.922-0.472c-0.358-0.16-0.77-0.334-1.225-0.51c-0.448-0.155-0.96-0.359-1.493-0.503
					c-0.539-0.168-1.132-0.332-1.724-0.453c-1.195-0.268-2.513-0.47-3.912-0.567c-1.403-0.108-2.853-0.059-4.332,0.135
					c-1.479,0.187-2.993,0.503-4.493,0.975c-1.479,0.513-2.945,1.172-4.371,1.962c-1.423,0.79-2.854,1.619-4.193,2.621
					c-1.348,0.988-2.67,2.005-3.913,3.093c-0.348,0.305-0.692,0.608-1.031,0.917c1.286,0.326,2.583,0.609,3.883,0.846
					c1.663,0.261,3.332,0.565,4.98,0.781c1.649,0.217,3.288,0.279,4.905,0.182c1.607-0.045,3.191-0.23,4.728-0.556
					c1.538-0.327,3.028-0.784,4.425-1.278c1.4-0.512,2.727-1.109,3.934-1.742c1.189-0.593,2.254-1.256,3.167-1.83
					c0.911-0.583,1.674-1.151,2.201-1.529c0.127-0.089,0.24-0.173,0.341-0.249c0.04-0.129,0.074-0.245,0.097-0.337
					c0.043-0.149,0.063-0.228,0.063-0.228C195.034,95.095,194.889,94.764,194.615,94.602z"/>
				<path style="fill:#94D468;" d="M195.491,94.629c0,0-0.015-0.091-0.047-0.268c-0.028-0.181-0.077-0.434-0.155-0.737
					c-0.076-0.312-0.17-0.695-0.28-1.145c-0.126-0.43-0.281-0.912-0.47-1.434c-0.198-0.503-0.404-1.097-0.675-1.662
					c-0.255-0.588-0.557-1.223-0.891-1.822c-0.657-1.23-1.465-2.517-2.418-3.794c-0.95-1.29-2.072-2.502-3.336-3.634
					c-1.262-1.136-2.659-2.207-4.182-3.146c-1.539-0.896-3.198-1.668-4.939-2.312c-1.737-0.64-3.516-1.258-5.376-1.665
					c-1.851-0.428-3.712-0.814-5.572-1.076c-0.93-0.128-1.845-0.267-2.777-0.327c-0.936-0.055-1.866-0.078-2.78-0.091
					c-1.835-0.011-3.617,0.063-5.312,0.208c-0.847,0.07-1.674,0.171-2.472,0.273c-0.8,0.114-1.6,0.31-2.353,0.481
					c-1.518,0.378-2.9,0.769-4.128,1.189c-1.228,0.419-2.293,0.845-3.173,1.235c-1.753,0.771-2.762,1.426-2.76,1.426
					c-0.315,0.202-0.405,0.619-0.202,0.934c0.008,0.011,0.015,0.02,0.023,0.028l0.016,0.023c0.001-0.001,0.741,1.01,2.05,2.402
					c0.654,0.703,1.447,1.504,2.352,2.357c0.906,0.854,1.93,1.732,3.039,2.646c0.555,0.457,1.138,0.866,1.73,1.357
					c0.596,0.482,1.209,0.973,1.844,1.445c1.269,0.951,2.609,1.87,4.009,2.739c0.7,0.424,1.413,0.849,2.14,1.246
					c0.724,0.415,1.452,0.866,2.195,1.271c1.479,0.838,3.012,1.568,4.555,2.256c1.554,0.646,3.104,1.337,4.653,1.938
					c1.551,0.6,3.129,1.048,4.724,1.336c1.572,0.336,3.154,0.531,4.725,0.578c1.572,0.047,3.128-0.045,4.602-0.194
					c1.482-0.167,2.912-0.434,4.234-0.764c1.295-0.294,2.487-0.688,3.51-1.028c1.023-0.352,1.898-0.723,2.5-0.966
					c0.294-0.114,0.531-0.222,0.694-0.304c0.16-0.075,0.245-0.115,0.245-0.115C195.377,95.355,195.556,94.983,195.491,94.629z"/>
				<path style="fill:#43454A;" d="M174.007,42.064c2.029-1.604,26.555-3.892,44.064,13.949L187.91,94.758
					C166.104,70.615,171.976,43.665,174.007,42.064z"/>
				<path style="fill:#FFFFFF;" d="M183.022,58.21c1.526-1.203,19.979-2.927,33.152,10.495l-22.692,29.148
					C177.077,79.69,181.495,59.415,183.022,58.21z"/>
			</g>
			<g>
				<path style="fill:#E69792;" d="M201.969,119.176c-2.407-1.61-4.283-1.595-4.809-0.348c-0.524,1.247-0.994,9.269,1.066,13.894
					c2.061,4.626,6.572,9.794,9.28,11.991c2.708,2.2,6.805,2.76,8.977,2.188L201.969,119.176z"/>
				<path style="fill:#E69792;" d="M291.471,102.899c1.683-2.355,3.447-3,4.376-2.017c0.928,0.979,4.193,8.321,3.895,13.378
					c-0.305,5.054-2.707,11.478-4.464,14.49c-1.759,3.013-5.397,4.977-7.633,5.211L291.471,102.899z"/>
				<path style="fill:#F4D6CC;" d="M283.569,63.978l-87.91,15.986c-4.104,30.663,13.54,64.723,22.987,73.476
					c9.447,8.756,24.23,20.274,39.286,19.253c14.449-4.345,24.228-20.332,29.988-31.851
					C293.685,129.323,298.206,91.231,283.569,63.978z"/>
				<g>
					<path style="fill:#892B36;" d="M256.36,161.852c6.811-1.104,10.572-6.364,9.769-9.641c-0.802-3.274-8.765-2.163-11.607-1.696
						c-2.866,0.472-10.749,1.917-10.476,5.276C244.319,159.154,249.55,162.958,256.36,161.852z"/>
					<path style="fill:#FFFFFF;" d="M244.82,153.949c2.567,1.331,8.035,0.561,10.291,0.192c2.274-0.372,7.689-1.363,9.703-3.433
						c-2.569-1.331-8.037-0.561-10.293-0.193C252.247,150.888,246.832,151.88,244.82,153.949z"/>
					<path style="fill:#DE5474;" d="M265.074,156.576c-2.211-1.771-5.774-2.931-9.936-2.257c-4.16,0.675-7.175,2.902-8.713,5.279
						c2.21,1.77,5.774,2.929,9.935,2.254C260.521,161.179,263.536,158.952,265.074,156.576z"/>
				</g>
				<g>
					<path style="fill:#FFFFFF;" d="M222.645,115.089c-4.797,0.094-8.245,3.452-9.943,8.462c1.538,2.665,2.323,2.95,2.323,2.95
						s4.136,5.294,10.733,4.082c6.598-1.213,9.065-5.94,9.181-7.142C235.128,121.468,230.305,114.942,222.645,115.089z"/>
					<path style="fill:#FFA4AF;" d="M231.115,124.769c-0.995,4.085-5.113,6.589-9.197,5.595c-4.084-0.998-6.587-5.114-5.591-9.199
						c0.996-4.085,5.113-6.587,9.195-5.59C229.606,116.568,232.11,120.686,231.115,124.769z"/>
					<path style="opacity:0.5;fill:#FFA4AF;" d="M225.04,122.241c2.331,0.155,4.466,0.756,6.23,1.651
						c0.469-3.778-1.957-7.396-5.748-8.318c-4.082-0.997-8.199,1.505-9.195,5.59c-0.252,1.032-0.279,2.066-0.115,3.054
						C218.439,122.794,221.594,122.01,225.04,122.241z"/>
					<path style="fill:#892B36;" d="M227.015,123.77c-0.442,1.821-2.277,2.935-4.098,2.492c-1.818-0.443-2.934-2.279-2.492-4.1
						c0.444-1.817,2.279-2.935,4.099-2.489C226.343,120.117,227.46,121.95,227.015,123.77z"/>
					<path style="fill:#892B36;" d="M235.825,122.958c-1.098-1.514-5.271-6.523-13.189-6.477c-7.049,0.041-9.407,7.045-9.407,7.045
						l1.796,2.975c0,0-2.769-0.82-5.685-3.145c1.592-0.821,2.732-2.902,3.87-4.444c1.421-1.925,4.531-5.071,10.654-4.624
						C229.23,114.682,234.422,117.742,235.825,122.958z"/>
					<path style="fill:#FFFFFF;" d="M229.221,120.891c-0.286,1.177-1.463,1.896-2.629,1.613c-1.164-0.284-1.88-1.469-1.591-2.645
						c0.285-1.173,1.461-1.895,2.629-1.611C228.794,118.532,229.508,119.716,229.221,120.891z"/>
					<path style="fill:#E69792;" d="M219.558,129.865c0,0,5.386,1.948,10.867-1.008
						C230.425,128.857,225.617,133.261,219.558,129.865z"/>
					<path style="fill:#E69792;" d="M216.733,114.31c0,0,0.184-0.116,0.513-0.3c0.167-0.087,0.357-0.215,0.611-0.3
						c0.244-0.1,0.525-0.213,0.843-0.32c0.315-0.119,0.656-0.179,1.026-0.267c0.367-0.085,0.753-0.182,1.165-0.202
						c0.407-0.04,0.829-0.092,1.26-0.12c0.431,0.009,0.87,0.021,1.308,0.03c0.44,0.004,0.873,0.064,1.301,0.143
						c0.427,0.063,0.844,0.149,1.246,0.222c0.396,0.107,0.771,0.25,1.125,0.368c0.357,0.122,0.693,0.236,0.992,0.363
						c0.583,0.306,1.048,0.593,1.376,0.777c0.324,0.192,0.503,0.312,0.503,0.312s-0.214-0.053-0.576-0.162
						c-0.357-0.115-0.873-0.256-1.469-0.465c-0.615-0.134-1.333-0.289-2.105-0.455c-0.39-0.049-0.794-0.083-1.201-0.142
						l-0.614-0.086c-0.208-0.018-0.42-0.012-0.624-0.021c-0.42-0.021-0.836-0.042-1.248-0.061c-0.411,0.026-0.815,0.027-1.21,0.043
						c-0.394,0.003-0.77,0.04-1.128,0.083c-0.357,0.05-0.708,0.052-1.013,0.112c-0.303,0.061-0.589,0.104-0.846,0.141
						c-0.259,0.026-0.478,0.111-0.658,0.157C216.945,114.263,216.733,114.31,216.733,114.31z"/>
					<path style="fill:#892B36;" d="M209.261,119.744c0,0,0.271,1.44,2.302,1.799l1.685-2.292
						C213.247,119.251,211.813,120.064,209.261,119.744z"/>
					<path style="fill:#892B36;" d="M211.563,117.617c0,0,0.133,1.461,2.117,2.012l1.898-2.118
						C215.579,117.511,214.072,118.181,211.563,117.617z"/>
					<path style="fill:#892B36;" d="M232.385,104.456c0,0-14.5-4.232-26.958,2.039c3.703-3.312,12.625-6.232,20.818-4.819
						C230.638,102.433,232.385,104.456,232.385,104.456z"/>
				</g>
				<g>
					<path style="fill:#FFFFFF;" d="M270.678,106.355c4.52-1.602,8.931,0.327,12.286,4.419c-0.499,3.037-1.139,3.578-1.139,3.578
						s-2.004,6.41-8.606,7.598c-6.603,1.188-10.579-2.366-11.109-3.453C261.24,116.72,263.456,108.913,270.678,106.355z"/>
					<path style="fill:#FFA4AF;" d="M266.157,118.397c2.37,3.471,7.107,4.363,10.579,1.994c3.47-2.37,4.363-7.104,1.993-10.576
						c-2.37-3.472-7.103-4.365-10.576-1.997C264.683,110.19,263.791,114.924,266.157,118.397z"/>
					<path style="opacity:0.5;fill:#FFA4AF;" d="M271.204,113.588c3.25-0.471,6.338-0.058,8.829,1.002
						c0.104-1.636-0.307-3.315-1.304-4.774c-2.37-3.472-7.103-4.365-10.576-1.997c-2.627,1.794-3.774,4.943-3.151,7.872
						C266.779,114.667,268.887,113.925,271.204,113.588z"/>
					<path style="fill:#892B36;" d="M269.642,116.017c1.056,1.546,3.169,1.944,4.714,0.89c1.547-1.056,1.944-3.166,0.888-4.712
						c-1.055-1.548-3.165-1.945-4.71-0.89C268.986,112.359,268.587,114.471,269.642,116.017z"/>
					<path style="fill:#892B36;" d="M261.111,118.358c0.495-1.8,2.637-7.959,10.065-10.705c6.607-2.441,11.282,3.282,11.282,3.282
						l-0.634,3.417c0,0,2.304-1.743,4.215-4.946c-1.78-0.208-3.577-1.754-5.188-2.795c-2.007-1.304-6.026-3.15-11.598-0.577
						C264.37,108.29,260.59,112.982,261.111,118.358z"/>
					<path style="fill:#FFFFFF;" d="M272.936,112.138c0.684,0.998,2.039,1.257,3.028,0.582c0.991-0.676,1.242-2.033,0.561-3.033
						c-0.681-0.998-2.037-1.262-3.031-0.583C272.504,109.779,272.254,111.137,272.936,112.138z"/>
					<path style="fill:#E69792;" d="M278.771,119.097c0,0-4.359,3.72-10.528,2.884C268.243,121.98,274.289,124.409,278.771,119.097z
						"/>
					<path style="fill:#E69792;" d="M275.938,103.544c0,0-0.213-0.047-0.586-0.101c-0.188-0.023-0.411-0.075-0.68-0.066
						c-0.264-0.007-0.566-0.013-0.899-0.005c-0.336,0-0.681,0.064-1.057,0.113c-0.371,0.05-0.766,0.098-1.159,0.222
						c-0.395,0.107-0.809,0.206-1.221,0.331c-0.401,0.16-0.809,0.325-1.215,0.49c-0.409,0.158-0.796,0.366-1.168,0.589
						c-0.378,0.208-0.736,0.438-1.089,0.648c-0.333,0.24-0.632,0.503-0.923,0.74c-0.29,0.239-0.565,0.463-0.802,0.688
						c-0.438,0.492-0.771,0.926-1.014,1.213c-0.235,0.294-0.359,0.47-0.359,0.47s0.183-0.126,0.479-0.355
						c0.294-0.234,0.728-0.548,1.212-0.954c0.528-0.341,1.148-0.737,1.811-1.166c0.348-0.18,0.714-0.354,1.074-0.555l0.543-0.296
						c0.189-0.091,0.389-0.158,0.579-0.242c0.382-0.164,0.768-0.33,1.147-0.494c0.393-0.12,0.772-0.26,1.145-0.383
						c0.371-0.14,0.736-0.235,1.088-0.323c0.351-0.078,0.682-0.199,0.985-0.25c0.305-0.049,0.589-0.11,0.843-0.164
						c0.251-0.068,0.485-0.066,0.673-0.085C275.719,103.572,275.938,103.544,275.938,103.544z"/>
					<path style="fill:#892B36;" d="M284.845,105.997c0,0,0.251,1.444-1.522,2.494l-2.385-1.552
						C280.939,106.939,282.568,107.195,284.845,105.997z"/>
					<path style="fill:#892B36;" d="M281.94,104.817c0,0,0.39,1.413-1.276,2.628l-2.522-1.313
						C278.142,106.132,279.788,106.23,281.94,104.817z"/>
					<path style="fill:#892B36;" d="M257.816,99.83c0,0,12.081-9.065,25.951-7.579c-4.634-1.799-14.008-1.391-21.182,2.816
						C258.742,97.32,257.816,99.83,257.816,99.83z"/>
				</g>
				<path style="fill:#E69792;" d="M250.326,142.252c0,0-0.495,1.657-0.218,2.092c0.28,0.435,2.769,1.28,2.811,1.104
					c0.044-0.172-1.938-2.945-2.209-3.192C250.44,142.006,250.37,142.101,250.326,142.252z"/>
				<path style="fill:#E69792;" d="M254.221,144.54c0.056-0.352,0.06-0.846,0.519-0.772c0.458,0.075,1.002,0.099,0.966,0.237
					C255.675,144.144,254.172,144.839,254.221,144.54z"/>
				<g>
					<path style="fill:#E69792;" d="M274.151,127.738c-0.212-0.118-0.475-0.04-0.591,0.171l-0.999,1.815
						c-0.046,0.085-0.08,0.181-0.095,0.284c-0.061,0.448,0.255,0.863,0.705,0.924c0.448,0.061,0.863-0.254,0.924-0.703l0.276-2.054
						C274.395,128.005,274.315,127.826,274.151,127.738z"/>
					<path style="fill:#E69792;" d="M277.559,126.443c-0.21-0.118-0.473-0.039-0.591,0.173l-0.996,1.812
						c-0.049,0.087-0.082,0.183-0.098,0.286c-0.059,0.45,0.255,0.863,0.704,0.924c0.45,0.062,0.864-0.254,0.925-0.703l0.277-2.052
						C277.803,126.709,277.722,126.533,277.559,126.443z"/>
					<path style="fill:#E69792;" d="M281.188,125.586c0.024-0.172-0.059-0.349-0.223-0.438c-0.209-0.115-0.473-0.042-0.588,0.17
						l-0.999,1.815c-0.047,0.086-0.081,0.183-0.096,0.286c-0.061,0.448,0.254,0.862,0.704,0.923
						c0.452,0.061,0.864-0.254,0.925-0.704L281.188,125.586z"/>
				</g>
				<g>
					<path style="fill:#E69792;" d="M225.364,138.124c-0.211-0.118-0.474-0.042-0.59,0.168l-1,1.814
						c-0.047,0.085-0.079,0.183-0.094,0.287c-0.06,0.449,0.254,0.862,0.703,0.924c0.45,0.061,0.863-0.254,0.925-0.703l0.276-2.054
						C225.608,138.39,225.525,138.21,225.364,138.124z"/>
					<path style="fill:#E69792;" d="M228.773,136.827c-0.214-0.117-0.477-0.04-0.592,0.171l-0.998,1.814
						c-0.047,0.087-0.081,0.183-0.096,0.287c-0.061,0.447,0.255,0.86,0.702,0.922c0.452,0.061,0.865-0.253,0.925-0.704l0.277-2.052
						C229.017,137.093,228.933,136.918,228.773,136.827z"/>
					<path style="fill:#E69792;" d="M232.402,135.973c0.021-0.174-0.062-0.351-0.223-0.441c-0.211-0.115-0.473-0.038-0.59,0.171
						l-1,1.816c-0.046,0.086-0.079,0.182-0.094,0.285c-0.061,0.451,0.255,0.864,0.703,0.922c0.45,0.064,0.863-0.252,0.924-0.702
						L232.402,135.973z"/>
				</g>
			</g>
			<path style="fill:#FFA4AF;" d="M307.917,104.817c-9.391-29.273-11.988-47.773-38.065-60.648
				c-26.076-12.875-60.707,0.625-73.142,18.375c-12.434,17.75-10.309,50.945-10.184,65.473s-2.801,51.277,25.037,50.402
				c-1.037-1.5-3.037-5.663-3.037-5.663c7.957,7.038,21.898,9.288,31.25,2.913c-8.448-2.913-14.5-8.5-16.103-12.5
				c2.915,0.375,7.985-1.5,8.731-5.313c-5.316,1.188-14.316-0.742-17.191-10.746c-2.875-10.004-3.96-19.428-3.96-19.428
				s8.123-18.354,7.821-32.546c9.302,24.642,37.439,24.872,39.451,23.96c0.666-0.302-0.71-4.081-0.71-4.081
				c1.876,0.779,4.019,0.65,4.114,0.34c0.096-0.311-0.988-12.56-5.488-21.144c7.917,7.666,18.577,13.029,28.414,14.515
				c1.087,16.901,2.753,36.652-8.58,40.735c4.5,1.166,7.419-0.821,7.419-0.821s3.53,11.486-9.319,25.32
				c14.483,0.5,31.901-10.417,32.567-28.083c0.916,3.834,1.166,9.16,0.833,10.122C310.943,150.628,317.308,134.091,307.917,104.817z
				"/>
			<path style="opacity:0.5;fill:#FFA4AF;" d="M236.072,50.063l-13.81-6.148c-2.461,0.968-4.837,2.061-7.105,3.259
				C220.833,53.83,229.762,52.937,236.072,50.063z"/>
			<path style="opacity:0.5;fill:#FFA4AF;" d="M209.261,99.46c0,0,0.031,0.428,0.086,1.176c0.038,0.748,0.119,1.815,0.221,3.092
				c0.046,0.639,0.096,1.33,0.147,2.062c0.051,0.73,0.075,1.501,0.163,2.297c0.125,1.594,0.288,3.291,0.396,4.99
				c0.11,1.699,0.233,3.396,0.414,4.982c0.15,1.589,0.34,3.065,0.399,4.343c0.049,1.277-0.013,2.354-0.104,3.116
				c-0.086,0.761-0.207,1.205-0.207,1.205s-0.202-0.405-0.429-1.132c-0.231-0.726-0.494-1.774-0.688-3.047
				c-0.182-1.273-0.275-2.771-0.427-4.369c-0.06-0.802-0.169-1.625-0.192-2.469c-0.025-0.843-0.053-1.699-0.079-2.556
				c-0.063-1.712-0.071-3.426-0.106-5.03c-0.018-0.801,0.027-1.58,0.042-2.316c0.029-0.736,0.057-1.432,0.082-2.074
				c0.061-1.283,0.099-2.351,0.172-3.097C209.221,99.887,209.261,99.46,209.261,99.46z"/>
			<path style="opacity:0.5;fill:#FFA4AF;" d="M273.552,82.71c0,0,0.306,0.31,0.811,0.88c0.502,0.573,1.189,1.417,1.977,2.463
				c0.398,0.52,0.817,1.092,1.233,1.717c0.433,0.614,0.84,1.292,1.289,1.979c0.41,0.708,0.851,1.434,1.259,2.192
				c0.404,0.762,0.832,1.527,1.188,2.33c0.379,0.791,0.745,1.589,1.065,2.393c0.349,0.792,0.631,1.596,0.893,2.378
				c0.284,0.774,0.518,1.537,0.716,2.269c0.215,0.727,0.409,1.416,0.502,2.074c0.094,0.656,0.185,1.256,0.219,1.794
				c0.015,0.541,0,1.016-0.025,1.405c-0.043,0.779-0.141,1.225-0.141,1.225s-0.226-0.411-0.492-1.132
				c-0.137-0.36-0.288-0.797-0.429-1.299c-0.183-0.496-0.35-1.06-0.53-1.674c-0.151-0.62-0.344-1.284-0.537-1.99
				c-0.183-0.709-0.399-1.45-0.666-2.205c-0.238-0.765-0.521-1.541-0.825-2.326c-0.28-0.793-0.606-1.584-0.947-2.37
				c-0.322-0.793-0.701-1.563-1.043-2.335c-0.353-0.768-0.739-1.505-1.097-2.227c-0.38-0.71-0.723-1.414-1.094-2.054
				c-0.364-0.646-0.708-1.256-1.026-1.819c-0.643-1.125-1.232-2.033-1.642-2.671C273.803,83.065,273.552,82.71,273.552,82.71z"/>
			<path style="opacity:0.2;fill:#FFFFFF;" d="M203.527,125.71c0,0,0.313,1.633,0.707,4.038c0.209,1.195,0.452,2.59,0.713,4.084
				c0.117,0.746,0.288,1.507,0.431,2.283c0.128,0.78,0.316,1.558,0.486,2.339c0.146,0.787,0.357,1.555,0.53,2.322
				c0.201,0.758,0.399,1.504,0.592,2.226c0.244,0.7,0.433,1.399,0.643,2.053c0.249,0.633,0.462,1.246,0.658,1.817
				c0.248,0.541,0.464,1.049,0.653,1.506c0.177,0.466,0.408,0.822,0.563,1.146c0.326,0.635,0.505,1.02,0.505,1.02
				s-0.306-0.271-0.826-0.785c-0.247-0.266-0.607-0.557-0.892-0.976c-0.309-0.403-0.662-0.862-1.022-1.382
				c-0.322-0.538-0.67-1.126-1.014-1.764c-0.316-0.645-0.63-1.338-0.935-2.064c-0.256-0.739-0.562-1.494-0.788-2.285
				c-0.202-0.793-0.45-1.594-0.621-2.407c-0.154-0.817-0.326-1.633-0.436-2.441c-0.139-0.806-0.202-1.608-0.27-2.381
				c-0.089-0.77-0.092-1.523-0.12-2.233c-0.028-0.709-0.005-1.383,0.008-2.002C203.17,127.343,203.527,125.71,203.527,125.71z"/>
			<g>
				<path style="opacity:0.2;fill:#FFFFFF;" d="M227.178,101.199c0,0,1.302,1.033,3.172,2.598c0.939,0.769,2.032,1.668,3.205,2.629
					c0.575,0.489,1.201,0.954,1.815,1.448c0.607,0.508,1.258,0.974,1.896,1.455c0.624,0.502,1.286,0.944,1.918,1.413
					c0.648,0.442,1.284,0.879,1.901,1.3c0.642,0.372,1.241,0.778,1.826,1.136c0.603,0.317,1.164,0.643,1.686,0.947
					c0.54,0.248,1.036,0.492,1.477,0.715c0.438,0.238,0.846,0.356,1.175,0.501c0.662,0.268,1.049,0.442,1.049,0.442
					s-0.41-0.006-1.14-0.055c-0.36-0.041-0.822-0.025-1.311-0.157c-0.497-0.104-1.065-0.222-1.677-0.381
					c-0.596-0.197-1.242-0.415-1.919-0.674c-0.661-0.282-1.351-0.603-2.056-0.954c-0.677-0.393-1.401-0.766-2.088-1.217
					c-0.672-0.469-1.382-0.914-2.042-1.419c-0.65-0.518-1.313-1.024-1.924-1.566c-0.632-0.52-1.203-1.086-1.759-1.628
					c-0.57-0.525-1.064-1.095-1.548-1.612c-0.484-0.52-0.906-1.045-1.301-1.523C227.973,102.67,227.178,101.199,227.178,101.199z"/>
				<path style="opacity:0.2;fill:#FFFFFF;" d="M231.625,99.56c0,0,1.028,0.87,2.492,2.188c0.737,0.647,1.597,1.404,2.519,2.214
					c0.449,0.412,0.949,0.803,1.434,1.219c0.475,0.428,0.998,0.819,1.506,1.225c0.492,0.422,1.029,0.793,1.534,1.187
					c0.524,0.371,1.039,0.737,1.539,1.091c0.53,0.311,1.017,0.65,1.497,0.949c0.504,0.265,0.968,0.536,1.398,0.791
					c0.458,0.205,0.875,0.408,1.246,0.594c0.365,0.198,0.723,0.293,1.003,0.414c0.567,0.22,0.895,0.364,0.895,0.364
					s-0.379,0.001-1.047-0.03c-0.326-0.031-0.758-0.01-1.188-0.117c-0.443-0.082-0.949-0.175-1.488-0.303
					c-0.52-0.162-1.08-0.34-1.663-0.553c-0.563-0.232-1.147-0.498-1.741-0.791c-0.559-0.327-1.167-0.638-1.726-1.016
					c-0.542-0.394-1.123-0.766-1.648-1.191c-0.513-0.436-1.04-0.86-1.513-1.317c-0.496-0.438-0.929-0.917-1.351-1.374
					c-0.438-0.443-0.797-0.926-1.157-1.364c-0.359-0.44-0.66-0.886-0.943-1.29C232.108,100.813,231.625,99.56,231.625,99.56z"/>
				<path style="opacity:0.2;fill:#FFFFFF;" d="M236.072,97.92c0,0,0.755,0.707,1.813,1.779c0.537,0.525,1.161,1.141,1.831,1.799
					c0.323,0.335,0.697,0.651,1.052,0.989c0.344,0.348,0.738,0.665,1.117,0.993c0.359,0.343,0.772,0.642,1.15,0.961
					c0.4,0.3,0.794,0.596,1.177,0.881c0.418,0.249,0.791,0.524,1.167,0.765c0.405,0.211,0.773,0.429,1.112,0.633
					c0.376,0.164,0.715,0.324,1.016,0.473c0.291,0.159,0.6,0.231,0.83,0.327c0.474,0.173,0.743,0.287,0.743,0.287
					s-0.349,0.008-0.954-0.006c-0.294-0.021-0.693,0.005-1.066-0.076c-0.388-0.062-0.833-0.129-1.3-0.227
					c-0.441-0.125-0.918-0.263-1.406-0.43c-0.467-0.185-0.945-0.396-1.427-0.628c-0.442-0.263-0.933-0.511-1.363-0.815
					c-0.412-0.318-0.864-0.618-1.255-0.963c-0.376-0.354-0.767-0.698-1.103-1.07c-0.36-0.356-0.653-0.747-0.941-1.121
					c-0.306-0.361-0.53-0.756-0.766-1.115c-0.235-0.36-0.414-0.726-0.587-1.058C236.244,98.956,236.072,97.92,236.072,97.92z"/>
			</g>
			<path style="opacity:0.2;fill:#FFFFFF;" d="M200.436,129.266c0,0,0.102,0.247,0.235,0.695c0.133,0.444,0.306,1.075,0.48,1.827
				c0.179,0.752,0.372,1.623,0.552,2.553c0.188,0.923,0.387,1.906,0.587,2.891c0.187,0.982,0.396,1.95,0.585,2.865
				c0.11,0.451,0.212,0.889,0.3,1.312c0.113,0.41,0.213,0.804,0.296,1.176c0.218,0.715,0.361,1.351,0.517,1.774
				c0.137,0.436,0.204,0.703,0.204,0.703s-0.204-0.168-0.543-0.495c-0.354-0.319-0.77-0.842-1.225-1.512
				c-0.437-0.675-0.874-1.511-1.232-2.444c-0.155-0.471-0.371-0.948-0.491-1.455c-0.143-0.502-0.27-1.017-0.37-1.534
				c-0.104-0.519-0.187-1.038-0.246-1.553c-0.077-0.513-0.081-1.023-0.123-1.513c-0.043-0.982-0.026-1.901,0.051-2.686
				c0.06-0.785,0.176-1.437,0.266-1.89C200.372,129.53,200.436,129.266,200.436,129.266z"/>
			<path style="opacity:0.2;fill:#FFFFFF;" d="M300.513,120.229c0,0,0.297,1.635,0.798,4.021c0.236,1.189,0.513,2.579,0.809,4.065
				c0.16,0.739,0.275,1.511,0.422,2.286c0.162,0.773,0.269,1.566,0.391,2.355c0.148,0.787,0.229,1.58,0.344,2.357
				c0.086,0.779,0.17,1.547,0.251,2.29c0.025,0.74,0.102,1.461,0.142,2.146c-0.004,0.68,0.02,1.328,0.042,1.932
				c-0.036,0.595-0.054,1.145-0.065,1.641c0.003,0.498-0.084,0.914-0.112,1.271c-0.074,0.711-0.103,1.135-0.103,1.135
				s0.188-0.363,0.487-1.031c0.135-0.337,0.366-0.738,0.479-1.231c0.142-0.487,0.306-1.043,0.455-1.658
				c0.105-0.618,0.219-1.292,0.309-2.011c0.063-0.716,0.104-1.475,0.127-2.262c-0.029-0.782-0.016-1.597-0.091-2.416
				c-0.098-0.813-0.154-1.648-0.288-2.47c-0.152-0.817-0.286-1.64-0.476-2.434c-0.162-0.802-0.392-1.572-0.607-2.317
				c-0.195-0.751-0.465-1.454-0.694-2.126c-0.229-0.673-0.494-1.292-0.729-1.864C301.435,121.623,300.513,120.229,300.513,120.229z"
				/>
			<path style="opacity:0.2;fill:#FFFFFF;" d="M304.679,122.43c0,0-0.006,0.267,0.03,0.733c0.037,0.463,0.103,1.113,0.213,1.877
				c0.104,0.766,0.239,1.648,0.406,2.58c0.159,0.929,0.327,1.917,0.496,2.907c0.18,0.983,0.334,1.962,0.488,2.884
				c0.06,0.46,0.123,0.904,0.194,1.33c0.042,0.424,0.092,0.827,0.148,1.205c0.055,0.744,0.149,1.39,0.157,1.841
				c0.03,0.455,0.065,0.73,0.065,0.73s0.13-0.23,0.328-0.657c0.214-0.427,0.414-1.064,0.597-1.853
				c0.164-0.787,0.271-1.725,0.268-2.725c-0.025-0.495,0.004-1.02-0.067-1.534c-0.047-0.521-0.114-1.046-0.208-1.564
				c-0.091-0.521-0.201-1.036-0.331-1.537c-0.113-0.506-0.294-0.983-0.432-1.455c-0.314-0.932-0.661-1.783-1.016-2.486
				c-0.339-0.71-0.684-1.276-0.931-1.666C304.834,122.653,304.679,122.43,304.679,122.43z"/>
			<path style="opacity:0.2;fill:#FFFFFF;" d="M197.345,132.821c0,0,0.384,0.384,0.696,0.991c0.171,0.302,0.321,0.661,0.442,1.05
				c0.063,0.194,0.117,0.395,0.159,0.602c0.051,0.204,0.068,0.423,0.116,0.624c0.148,0.819,0.141,1.661-0.01,2.333
				c-0.122,0.665-0.375,1.157-0.375,1.157s-0.404-0.349-0.754-0.946c-0.378-0.59-0.689-1.431-0.845-2.293
				c-0.119-0.854-0.051-1.719,0.131-2.389C197.064,133.286,197.345,132.821,197.345,132.821z"/>
			<path style="opacity:0.3;fill:#FFFFFF;" d="M188.105,86.55c4.193,1.854,11.021,3.328,19.939,2.389
				c14.49-1.527,17.939-9.189,16.706-9.61c-1.232-0.419-12.632,0.134-19.316,0.228c-5.994,0.085-11.946,0.371-16.151,0.972
				C188.824,82.501,188.438,84.516,188.105,86.55z"/>
			<path style="opacity:0.3;fill:#FFFFFF;" d="M275.26,47.13c-8.005,10.026-29.06,24.747-25.684,25.914
				c4.291,1.483,24.764-1.936,38.095-15.758C284.368,53.563,280.342,50.196,275.26,47.13z"/>
			<path style="fill:#FFA4AF;" d="M237.75,49.294c-9.724-5.5-11.224-24.875,1.901-33c-14.75,1.5-22.167,10.817-23.625,21
				C214.568,47.477,224.974,55.794,237.75,49.294z"/>
			<g>
				<path style="fill:#F4D6CC;" d="M325.073,228.331c0,0-1.906-11.539-1.745-19.122c0.161-7.583,1.722-15.148,2.233-18.24
					c0.512-3.093,1.928-10.344,1.928-13.927c0-3.583-1.334-5.417-0.5-6c0.834-0.583,4.501-1.416,6.834,0.667
					c2.333,2.083,3.916,6.833,3.666,9.833s-0.697,5,0.026,6.667c0.724,1.667,2.058,4.999,2.641,5.333
					c0.583,0.334,7.834-6.247,11.917-8.79c4.083-2.543,14.083-8.875,19.583-11.209s9.083-3.083,11.75-2.5
					c2.667,0.583,3.499,3.332,2.833,4.166c-0.666,0.834-10.833,6.083-14.583,8.75c-3.75,2.667-12.916,10.916-13.833,11.833
					c0,0,3.5-0.332,5.333,0.334c1.833,0.666,3.083,2.833,3.5,4.833c0.417,2-1.583,5.667-1.583,5.667s3.417,0.417,4.75,2.75
					c1.333,2.333,0.417,5.5-1.75,6.583c0,0,2.75,1.251,2.833,3.167c0.083,1.916-1.751,4.25-2.917,5.583
					c-1.166,1.333-4.999,6.834-8.916,9.084c-3.917,2.25-6.25,3.75-6.667,4.5c-0.417,0.75-3.917,23.249-4.084,38.082
					s-3.879,60.764-6.962,69.55c-3.083,8.786-16.666,18.952-20.333,20.369c-3.667,1.417-9.416,1.167-12.25-3.833
					c-2.834-5-14.126-17.544-7.126-40.605C308.651,298.794,323.949,244.787,325.073,228.331z"/>
				<path style="fill:#F4D6CC;" d="M362.706,223.002l-0.484-0.046c-1.115-0.109-2.501-0.248-3.893,0.403
					c-1.403,0.657-6.396,1.196-8.118,0.292c-0.729-0.383-1.14-0.906-1.155-1.474c-0.014-0.509,0.31-1.011,0.866-1.342
					c0.743-0.442,1.865-1.281,2.951-2.093c0.953-0.712,2.027-1.515,2.401-1.693c0.208-0.083,0.401-0.152,0.557-0.186
					c0.705-0.15,8.004-0.682,12.366-0.987c0.49-0.271,0.919-0.639,1.261-1.09c-2.673,0.184-12.88,0.896-13.834,1.099
					c-0.22,0.047-0.466,0.134-0.729,0.239l-0.001-0.003c-0.006,0.003-0.015,0.009-0.021,0.011c-0.379,0.154-0.801,0.354-1.287,0.587
					c-0.891,0.428-1.999,0.961-3.3,1.4c-2.532,0.855-4.895,0.783-6.482-0.201c-0.811-0.503-1.293-1.23-1.289-1.945
					c0.002-0.537,0.292-1.009,0.816-1.327c1.564-0.951,5.021-3.5,7.145-5.193c2.163-1.723,4.086-2.764,5.279-2.856
					c2.163-0.042,7.739,0.064,9.751,0.106c-0.267-0.056-0.435-0.077-0.435-0.077s0.198-0.363,0.456-0.923
					c-2.022-0.042-7.626-0.15-9.839-0.104v-0.001c-0.002,0-0.005,0.001-0.007,0.001c-0.305,0.007-0.561,0.016-0.716,0.028
					c-1.595,0.133-2.193,0.365-5.515,1.657c-0.962,0.374-1.823,0.756-2.655,1.126c-2.038,0.903-3.798,1.684-5.92,1.8
					c-2.052,0.105-4.278-1.028-4.582-2.006c-0.131-0.421,0.134-0.836,0.787-1.235c1.72-1.051,4.096-3.215,6.193-5.123
					c1.619-1.474,3.148-2.866,4.069-3.468c2.083-1.362,5.305-1.597,9.763-1.92c0.275-0.02,0.482-0.26,0.463-0.535
					c-0.021-0.277-0.274-0.493-0.535-0.463c-4.608,0.335-7.938,0.577-10.237,2.08c-0.7,0.458-1.653,1.275-2.761,2.267
					c-0.091-0.179-0.182-0.364-0.275-0.532c-0.35-0.654-0.693-1.242-1.026-1.747c-0.311-0.516-0.635-0.938-0.884-1.29
					c-0.262-0.35-0.477-0.612-0.636-0.798c-0.153-0.176-0.235-0.27-0.235-0.27c-0.146-0.168-0.393-0.224-0.602-0.12
					c-0.248,0.124-0.35,0.426-0.226,0.674l0.01,0.02c0,0,0.053,0.105,0.151,0.305c0.092,0.199,0.228,0.491,0.399,0.863
					c0.332,0.759,0.803,1.839,1.295,3.164c0.14,0.373,0.28,0.775,0.423,1.186c-2.021,1.84-4.277,3.88-5.87,4.854
					c-1.434,0.877-1.381,1.871-1.221,2.386c0.494,1.59,3.165,2.716,5.285,2.716c0.103,0,0.206-0.003,0.307-0.009
					c1.409-0.076,2.643-0.412,3.875-0.876c0.117,0.634,0.215,1.27,0.311,1.9c-0.918,0.654-1.741,1.215-2.307,1.559
					c-0.82,0.499-1.293,1.293-1.297,2.179c-0.006,1.064,0.653,2.111,1.762,2.799c0.715,0.443,1.561,0.723,2.486,0.852
					c0.005,0.222,0.007,0.449,0.018,0.66c0.005,0.709,0.074,1.365,0.042,1.943c-0.006,0.58-0.01,1.087-0.014,1.504
					c0.011,0.841,0.017,1.322,0.017,1.322v0.033c0.003,0.227,0.161,0.432,0.393,0.482c0.271,0.061,0.538-0.11,0.598-0.381
					c0,0,0.106-0.478,0.292-1.313c0.083-0.422,0.184-0.934,0.301-1.521c0.129-0.588,0.181-1.26,0.261-1.993
					c0.017-0.22,0.046-0.455,0.072-0.686c0.918-0.075,1.882-0.274,2.864-0.606c0.1-0.034,0.19-0.071,0.288-0.105
					c-0.566,0.411-1.098,0.783-1.485,1.015c-0.871,0.52-1.377,1.353-1.354,2.229c0.025,0.932,0.641,1.781,1.69,2.331
					c0.799,0.419,2.1,0.582,3.485,0.582c2.177,0,4.561-0.403,5.522-0.853c1.144-0.535,2.326-0.418,3.37-0.314l0.503,0.047
					c0.221,0.019,0.561,0.06,0.984,0.111c1.129,0.137,2.874,0.346,4.563,0.383c0.256-0.298,0.529-0.629,0.809-0.995
					c-1.848,0.03-3.963-0.225-5.251-0.381C363.29,223.064,362.936,223.02,362.706,223.002z M347.288,209.538
					c-0.016-0.077-0.031-0.153-0.047-0.23c0.811-0.36,1.648-0.731,2.575-1.092c0.512-0.199,0.949-0.369,1.34-0.519
					c-0.494,0.348-0.941,0.688-1.302,0.975c-0.698,0.557-1.544,1.207-2.415,1.859C347.393,210.2,347.348,209.868,347.288,209.538z"
					/>
				<path style="fill:#43454A;" d="M324.975,227.71c2.765,3.498,17.281,11.263,27.732,10.214c0,0,0.451,0.201,0.367,1.701
					c-0.084,1.5-3.834,29.834-3.834,30.25s-8.417,5.75-19.5,2.833c-11.083-2.917-13.499-8.833-13.166-10
					C316.906,261.541,324.975,227.71,324.975,227.71z"/>
			</g>
			<g>
				<path style="fill:#F4D6CC;" d="M164.104,204.612c0,0,5.761-10.179,8.219-17.355c2.459-7.176,3.597-14.813,4.181-17.893
					c0.584-3.081,1.751-10.378,2.984-13.74c1.231-3.364,3.114-4.625,2.533-5.462c-0.583-0.833-3.737-2.879-6.646-1.724
					c-2.907,1.151-6.028,5.066-6.825,7.97c-0.799,2.901-1.066,4.934-2.319,6.251c-1.255,1.315-3.653,3.983-4.314,4.098
					c-0.662,0.113-5.206-8.562-8.165-12.355c-2.959-3.792-10.168-13.178-14.529-17.264c-4.36-4.084-7.466-6.02-10.172-6.391
					c-2.704-0.37-4.431,1.925-4.094,2.936c0.339,1.011,8.078,9.439,10.681,13.233c2.605,3.796,8.371,14.695,8.918,15.87
					c0,0-3.171-1.516-5.124-1.518c-1.952-0.008-3.87,1.598-4.949,3.33c-1.081,1.735-0.465,5.867-0.465,5.867
					s-3.351-0.782-5.407,0.947c-2.052,1.731-2.281,5.02-0.62,6.783c0,0-3.014,0.229-3.749,1.998
					c-0.739,1.771,0.181,4.593,0.816,6.247c0.636,1.651,2.342,8.137,5.245,11.597c2.902,3.461,4.577,5.674,4.711,6.52
					c0.133,0.847-4.326,23.177-9.271,37.16c-4.949,13.984-17.271,58.387-17.401,67.697c-0.129,9.313,9.125,23.53,12.082,26.123
					c2.954,2.594,8.438,4.336,12.819,0.619c4.381-3.722,19.302-11.612,20.666-35.675
					C155.271,276.422,159.495,220.45,164.104,204.612z"/>
				<path style="fill:#F4D6CC;" d="M129.602,186.411c-1.263-0.297-3.337-0.786-5.061-1.45c0.138,0.44,0.28,0.846,0.418,1.213
					c1.598,0.548,3.31,0.951,4.414,1.212c0.414,0.097,0.749,0.175,0.964,0.234l0.487,0.126c1.017,0.264,2.167,0.561,3.056,1.456
					c0.749,0.755,2.85,1.953,4.892,2.701c1.3,0.478,2.579,0.772,3.472,0.654c1.176-0.156,2.045-0.742,2.39-1.606
					c0.324-0.814,0.136-1.773-0.502-2.56c-0.285-0.351-0.656-0.884-1.048-1.464c0.081,0.065,0.152,0.132,0.234,0.199
					c0.809,0.648,1.645,1.169,2.481,1.554c-0.055,0.226-0.109,0.457-0.167,0.669c-0.177,0.717-0.36,1.366-0.442,1.962
					c-0.094,0.59-0.174,1.107-0.241,1.53c-0.113,0.848-0.177,1.332-0.177,1.332c-0.038,0.275,0.153,0.528,0.43,0.564
					c0.235,0.031,0.453-0.106,0.535-0.317l0.013-0.032c0,0,0.17-0.45,0.47-1.234c0.138-0.394,0.309-0.87,0.503-1.418
					c0.171-0.553,0.459-1.145,0.708-1.809c0.083-0.193,0.164-0.406,0.245-0.613c0.913,0.195,1.805,0.226,2.626,0.055
					c1.278-0.264,2.259-1.02,2.619-2.022c0.301-0.831,0.132-1.74-0.469-2.491c-0.411-0.518-0.992-1.326-1.629-2.257
					c0.308-0.559,0.618-1.124,0.947-1.677c0.997,0.859,2.041,1.599,3.336,2.155c0.094,0.039,0.188,0.078,0.285,0.113
					c1.992,0.729,4.888,0.591,5.898-0.73c0.328-0.428,0.72-1.344-0.326-2.661c-1.16-1.461-2.576-4.152-3.841-6.576
					c0.274-0.336,0.546-0.665,0.806-0.968c0.918-1.074,1.732-1.926,2.305-2.525c0.289-0.288,0.519-0.518,0.673-0.673
					c0.16-0.152,0.246-0.234,0.246-0.234l0.017-0.015c0.202-0.19,0.21-0.509,0.018-0.711c-0.159-0.169-0.41-0.201-0.605-0.095
					c0,0-0.109,0.06-0.314,0.173c-0.212,0.121-0.505,0.291-0.871,0.529c-0.355,0.246-0.806,0.53-1.272,0.908
					c-0.487,0.36-1.014,0.792-1.566,1.286c-0.146,0.126-0.294,0.27-0.442,0.405c-0.697-1.312-1.313-2.407-1.814-3.077
					c-1.64-2.204-4.683-3.576-8.894-5.479c-0.233-0.12-0.549-0.002-0.661,0.25c-0.114,0.252-0.002,0.549,0.25,0.663
					c4.073,1.838,7.018,3.167,8.506,5.164c0.656,0.881,1.613,2.713,2.625,4.655c1.313,2.514,2.799,5.362,4.054,6.941
					c0.475,0.6,0.58,1.081,0.313,1.432c-0.621,0.814-3.102,1.109-4.994,0.306c-1.952-0.839-3.336-2.179-4.938-3.728
					c-0.653-0.635-1.332-1.289-2.105-1.972c-2.674-2.354-3.154-2.779-4.608-3.453c-0.142-0.066-0.378-0.163-0.662-0.273
					c-0.002-0.001-0.004-0.003-0.007-0.004l0.001,0.001c-2.062-0.804-7.36-2.632-9.274-3.287c0.051,0.614,0.11,1.022,0.11,1.022
					s-0.166-0.037-0.433-0.078c1.902,0.654,7.174,2.474,9.191,3.258c1.088,0.498,2.535,2.137,3.972,4.499
					c1.412,2.32,3.781,5.902,4.923,7.334c0.383,0.48,0.492,1.023,0.311,1.527c-0.245,0.673-0.945,1.188-1.881,1.382
					c-1.827,0.379-4.072-0.366-6.155-2.041c-1.07-0.86-1.929-1.743-2.615-2.45c-0.377-0.386-0.704-0.719-1.007-0.994
					c-0.006-0.004-0.013-0.011-0.017-0.016l-0.002,0.002c-0.211-0.191-0.411-0.357-0.602-0.477
					c-0.826-0.52-10.165-4.701-12.61-5.793c0.167,0.54,0.441,1.034,0.808,1.458c3.99,1.787,10.661,4.799,11.272,5.182
					c0.133,0.084,0.293,0.216,0.458,0.365c0.29,0.297,1.022,1.421,1.673,2.417c0.74,1.137,1.506,2.31,2.051,2.982
					c0.408,0.504,0.539,1.085,0.351,1.559c-0.209,0.527-0.775,0.878-1.592,0.985c-1.929,0.256-6.431-1.969-7.521-3.069
					c-1.081-1.089-2.431-1.435-3.517-1.717l-0.472-0.125C130.381,186.593,130.034,186.513,129.602,186.411z M149.231,180.201
					c-0.596-0.914-1.166-1.814-1.629-2.577c-0.241-0.393-0.544-0.866-0.888-1.362c0.315,0.274,0.667,0.585,1.079,0.947
					c0.746,0.658,1.406,1.296,2.043,1.91c-0.04,0.068-0.082,0.135-0.124,0.202C149.544,179.609,149.388,179.906,149.231,180.201z"/>
				<path style="fill:#43454A;" d="M164.409,204.061c-3.799,2.334-20.1,4.628-29.552,0.046c0,0-0.494,0.034-0.929,1.472
					c-0.438,1.438-6.67,29.33-6.813,29.722c-0.144,0.391,5.923,8.296,17.333,9.37c11.41,1.075,15.716-3.647,15.804-4.858
					C160.343,238.604,164.409,204.061,164.409,204.061z"/>
			</g>
			<g>
				<path style="opacity:0.5;fill:#FFA4AF;" d="M299.358,94.859c-0.833-2.518-2.394-4.654-4.866-6.138
					c-0.53-0.318-1.047-0.571-1.556-0.796c0.482-0.14,0.966-0.307,1.455-0.538c2.279-1.078,3.542-2.97,4.004-5.38
					c-2.247-1.729-4.916-1.593-4.916-1.593s1.015-2.271-0.028-4.787c-2.63-0.389-4.989,0.085-6.846,1.711
					c-0.398,0.349-0.729,0.715-1.03,1.086c-0.065-0.516-0.155-1.047-0.309-1.611c-0.716-2.633-2.399-4.688-4.72-6.233
					c-2.065,1.3-2.344,3.859-2.344,3.859s-2.097-2.001-4.755-2.189c-0.794,2.276-0.691,4.705,0.635,7.193
					c0.285,0.534,0.597,1.014,0.919,1.468c-0.521-0.178-1.062-0.338-1.646-0.456c-2.724-0.552-5.024,0.073-6.919,1.524
					c0.969,2.534,3.469,3.979,3.469,3.979s-2.311,1.036-2.913,3.437c2.139,1.795,4.563,2.822,7.237,2.735
					c0.574-0.019,1.099-0.089,1.599-0.18c-0.257,0.404-0.5,0.835-0.707,1.326c-0.97,2.292-0.706,4.735,0.44,7.18
					c2.666,0.266,4.487-1.402,4.487-1.402s0.668,2.643,2.956,4.314c2.116-1.17,3.511-2.963,3.84-5.505
					c0.07-0.545,0.082-1.066,0.069-1.575c0.36,0.427,0.75,0.854,1.205,1.274c2.126,1.966,4.59,2.852,7.195,2.91
					c0.674-2.369-0.696-4.846-0.696-4.846S297.345,96.227,299.358,94.859z"/>
				<path style="fill:#FFFFFF;" d="M283.675,83.589c0,0,4.065-3.183,2.396-9.327c-0.716-2.633-2.399-4.688-4.72-6.233
					c-2.065,1.3-2.344,3.859-2.344,3.859s-2.097-2.001-4.755-2.19c-0.794,2.276-0.691,4.705,0.635,7.193
					C277.983,82.701,283.675,83.589,283.675,83.589z"/>
				<path style="fill:#FFFFFF;" d="M283.047,84.461c0,0-2.532-5.278-8.886-6.558c-2.724-0.552-5.024,0.073-6.919,1.524
					c0.969,2.534,3.469,3.979,3.469,3.979s-2.311,1.036-2.913,3.436c2.139,1.795,4.563,2.822,7.237,2.735
					C281.28,89.372,283.047,84.461,283.047,84.461z"/>
				<path style="fill:#FFFFFF;" d="M283.813,85.451c0,0-5.63-0.076-7.886,5.273c-0.97,2.292-0.706,4.735,0.44,7.18
					c2.666,0.266,4.487-1.402,4.487-1.402s0.668,2.643,2.956,4.314c2.116-1.17,3.511-2.963,3.84-5.505
					C288.412,89.377,283.813,85.451,283.813,85.451z"/>
				<path style="fill:#FFFFFF;" d="M284.915,85.193c0,0-0.948,5.229,4.01,9.817c2.126,1.966,4.59,2.852,7.195,2.91
					c0.674-2.369-0.696-4.846-0.696-4.846s2.726,0.6,4.739-0.768c-0.833-2.518-2.394-4.654-4.866-6.138
					C289.525,82.707,284.915,85.193,284.915,85.193z"/>
				<path style="fill:#FFFFFF;" d="M284.831,84.041c0,0,5.041,3.31,10.365,0.795c2.279-1.078,3.542-2.97,4.004-5.38
					c-2.247-1.729-4.916-1.593-4.916-1.593s1.015-2.271-0.028-4.787c-2.63-0.389-4.989,0.085-6.846,1.711
					C283.077,78.583,284.831,84.041,284.831,84.041z"/>
				<path style="fill:#FFAF24;" d="M287.388,83.763c0.751,1.88-0.136,3.756-1.974,4.188c-1.842,0.432-3.941-0.74-4.69-2.62
					c-0.75-1.88,0.136-3.754,1.975-4.188C284.541,80.712,286.64,81.886,287.388,83.763z"/>
			</g>
		</g>
	</g>
</g>
</svg>
